<?xml version="1.0" encoding="utf-8"?>
<!-- Generator: Adobe Illustrator 26.1.0, SVG Export Plug-In . SVG Version: 6.00 Build 0)  -->
<svg version="1.1" id="Layer_1" xmlns="http://www.w3.org/2000/svg" xmlns:xlink="http://www.w3.org/1999/xlink" x="0px" y="0px"
	 viewBox="0 0 800 800" style="enable-background:new 0 0 800 800;" xml:space="preserve">
<style type="text/css">
	.st0{fill:#838EBC;}
	.st1{fill:none;stroke:#838EBC;stroke-width:18;stroke-miterlimit:10;}
</style>
<path class="st0" d="M399,304.5c-18.9,0-37.4,5.6-53.1,16.1c-15.7,10.5-28,25.5-35.2,42.9c-7.2,17.5-9.1,36.7-5.4,55.3
	c3.7,18.6,12.8,35.6,26.2,49c13.4,13.4,30.4,22.5,49,26.2c18.6,3.7,37.8,1.8,55.3-5.4c17.5-7.2,32.4-19.5,42.9-35.2
	c10.5-15.7,16.1-34.2,16.1-53.2c0-12.6-2.4-25-7.2-36.6c-4.8-11.6-11.8-22.2-20.7-31.1c-8.9-8.9-19.4-15.9-31.1-20.7
	C424,306.9,411.6,304.4,399,304.5z M399,462.4c-12.3,0-24.4-3.7-34.6-10.5c-10.2-6.8-18.2-16.6-22.9-28c-4.7-11.4-5.9-23.9-3.5-36
	c2.4-12.1,8.3-23.2,17-31.9c8.7-8.7,19.8-14.6,31.9-17c12.1-2.4,24.6-1.2,36,3.5c11.4,4.7,21.1,12.7,28,22.9
	c6.8,10.2,10.5,22.3,10.5,34.6c0,16.5-6.6,32.4-18.2,44.1C431.4,455.9,415.5,462.4,399,462.4z M521,300.5c0,4.6-1.4,9.1-3.9,13
	c-2.6,3.8-6.2,6.8-10.5,8.6c-4.3,1.8-9,2.2-13.5,1.3c-4.5-0.9-8.7-3.1-11.9-6.4c-3.3-3.3-5.5-7.4-6.4-11.9
	c-0.9-4.5-0.4-9.2,1.3-13.5c1.8-4.3,4.8-7.9,8.6-10.5c3.8-2.6,8.3-3.9,13-3.9c6.2,0,12.1,2.5,16.5,6.8
	C518.6,288.4,521,294.3,521,300.5z M584.3,323.8c0.7-29-10.1-57.1-30.1-78.2c-20.9-20.2-49.1-31.3-78.2-30.8
	c-30.3-1.4-123.7-1.4-154,0c-29-0.6-57.1,10.2-78.2,30.1c-20,21.1-30.8,49.2-30.1,78.2c-1.4,30.3-1.4,123.7,0,154
	c-0.7,29,10.1,57.1,30.1,78.2c21.1,19.9,49.2,30.7,78.2,30.1c30.8,1.9,123.2,1.9,154,0c29,0.7,57.1-10.1,78.2-30.1
	c20-21.1,30.8-49.2,30.1-78.2c1.4-30.3,1.4-123.7,0-154V323.8z M544.6,510.5c-3.2,8-7.9,15.3-14.1,21.4
	c-6.1,6.1-13.4,10.9-21.4,14.1c-36.2,7.3-73.3,9.8-110.1,7.5c-36.8,2.4-73.8-0.1-109.9-7.5c-8-3.2-15.3-7.9-21.4-14.1
	c-6.1-6.1-10.9-13.4-14.1-21.4c-9.8-24.7-7.7-83.1-7.7-110.1s-2.1-85.6,7.7-110.1c3.1-8.1,7.8-15.5,13.9-21.6
	c6.1-6.2,13.4-10.9,21.5-14.1c36.1-7.3,73.1-9.8,109.9-7.5c36.9-2.4,73.9,0.1,110.1,7.5c8,3.2,15.3,8,21.4,14.1
	c6.1,6.1,10.9,13.4,14.1,21.4c9.8,24.7,7.5,83.1,7.5,110.1s2.3,85.6-7.5,110.1V510.5z"/>
<circle class="st1" cx="399" cy="400.4" r="382.9"/>
</svg>
