<?xml version="1.0" encoding="utf-8"?>
<!-- Generator: Adobe Illustrator 26.1.0, SVG Export Plug-In . SVG Version: 6.00 Build 0)  -->
<svg version="1.1" id="Layer_1" xmlns="http://www.w3.org/2000/svg" xmlns:xlink="http://www.w3.org/1999/xlink" x="0px" y="0px"
	 viewBox="0 0 800 800" style="enable-background:new 0 0 800 800;" xml:space="preserve">
<style type="text/css">
	.st0{fill:#838EBC;}
	.st1{fill:none;stroke:#838EBC;stroke-width:18;stroke-miterlimit:10;}
</style>
<path class="st0" d="M581.6,308.8c0,4,0,8.2,0,12.1c0.2,35.2-6.6,70.2-19.9,102.8c-13.4,32.6-33.1,62.2-58,87.1
	c-24.9,24.9-54.5,44.6-87.1,58c-32.6,13.4-67.5,20.2-102.8,19.9c-51.3,0.1-101.5-14.5-144.7-42.2c7.7,0,14.9,0,23.3,0
	c42.3,0,83.4-14.2,116.7-40.4c-19.7-0.2-38.9-6.6-54.7-18.3s-27.6-28.2-33.5-47c5.9,0.9,11.9,1.4,18,1.4c8.3-0.1,16.6-1.1,24.7-3
	c-21.1-4.3-40-15.8-53.6-32.4c-13.6-16.7-21-37.5-21-59c13,7.2,27.6,11.3,42.5,11.9c-13.1-8.7-23.9-20.5-31.3-34.4
	c-7.4-13.9-11.2-29.4-11.2-45.2c0-16.4,4.4-32.5,12.6-46.7c23.6,29.1,53.1,52.9,86.5,69.9s70,26.8,107.4,28.8
	c-1.5-7.1-2.3-14.3-2.3-21.5c-0.6-19.2,4.7-38.1,15.3-54.2c10.6-16.1,25.8-28.5,43.7-35.5c17.9-7.1,37.5-8.5,56.2-4
	c18.7,4.5,35.5,14.6,48.2,29.1c21.1-4.2,41.3-12.1,59.7-23.3c-7,21.8-21.8,40.2-41.5,51.8c18.8-2,37.1-6.9,54.4-14.5
	c-12.8,18.7-28.6,35.2-46.7,48.8H581.6z"/>
<circle class="st1" cx="399" cy="400.4" r="382.9"/>
</svg>
