<?xml version="1.0" encoding="utf-8"?>
<!-- Generator: Adobe Illustrator 26.1.0, SVG Export Plug-In . SVG Version: 6.00 Build 0)  -->
<svg version="1.1" id="XMLID_3_" xmlns="http://www.w3.org/2000/svg" xmlns:xlink="http://www.w3.org/1999/xlink" x="0px" y="0px"
	 viewBox="0 0 800 800" style="enable-background:new 0 0 800 800;" xml:space="preserve">
<style type="text/css">
	.st0{fill:#838EBC;}
	.st1{fill:none;stroke:#838EBC;stroke-width:18;stroke-miterlimit:10;}
</style>
<g id="social-youtube">
	<g id="Lozenge">
		<g>
			<path class="st0" d="M673,292.7c0,0-7-35-21-53.7c-21-21-46.7-18.7-56-21c-77-4.7-196-4.7-196-4.7l0,0c0,0-119,0-196,4.7
				c-9.3,2.3-35,2.3-56,23.3c-16.3,16.3-21,53.7-21,53.7s-7,44.3-7,86.3V421c0,44.3,7,86.3,7,86.3s7,35,21,53.7c21,21,49,18.7,63,21
				c42,4.7,189,4.7,189,4.7s119,0,196-4.7c9.3-2.3,35-2.3,56-23.3c16.3-16.3,21-53.7,21-53.7s7-44.3,7-84v-39.7
				C680,337,673,292.7,673,292.7z M337,472.3V316l161,79.3L337,472.3z"/>
		</g>
	</g>
</g>
<circle class="st1" cx="400" cy="400" r="382.9"/>
</svg>
